<svg width="48" height="48" viewBox="0 0 48 48" fill="none" xmlns="http://www.w3.org/2000/svg">
<rect x="1" y="1" width="46" height="46" rx="23" stroke="white" stroke-width="2"/>
<path fill-rule="evenodd" clip-rule="evenodd" d="M27.2385 28.08C27.128 28.183 27.0393 28.3072 26.9778 28.4452C26.9163 28.5832 26.8833 28.7321 26.8806 28.8832C26.8779 29.0342 26.9057 29.1843 26.9623 29.3244C27.0189 29.4644 27.1031 29.5917 27.2099 29.6985C27.3168 29.8054 27.444 29.8896 27.5841 29.9462C27.7242 30.0027 27.8742 30.0305 28.0253 30.0279C28.1763 30.0252 28.3253 29.9921 28.4633 29.9306C28.6013 29.8692 28.7255 29.7805 28.8285 29.67L33.7035 24.795L34.5 24L33.705 23.205L28.83 18.33C28.6179 18.1249 28.3338 18.0114 28.0388 18.0138C27.7438 18.0163 27.4616 18.1344 27.2529 18.3429C27.0443 18.5514 26.9258 18.8335 26.9231 19.1285C26.9204 19.4235 27.0337 19.7077 27.2385 19.92L30.1935 22.875H14.625C14.3266 22.875 14.0405 22.9935 13.8295 23.2045C13.6185 23.4155 13.5 23.7016 13.5 24C13.5 24.2983 13.6185 24.5845 13.8295 24.7955C14.0405 25.0064 14.3266 25.125 14.625 25.125H30.1935L27.2385 28.08Z" fill="white"/>
</svg>
