<svg width="48" height="48" viewBox="0 0 48 48" fill="none" xmlns="http://www.w3.org/2000/svg">
<rect x="1" y="1" width="46" height="46" rx="23" stroke="#E15225" stroke-width="2"/>
<path fill-rule="evenodd" clip-rule="evenodd" d="M27.2385 28.0801C27.128 28.1831 27.0393 28.3073 26.9778 28.4453C26.9163 28.5833 26.8833 28.7323 26.8806 28.8833C26.8779 29.0344 26.9057 29.1844 26.9623 29.3245C27.0189 29.4646 27.1031 29.5918 27.2099 29.6986C27.3168 29.8055 27.444 29.8897 27.5841 29.9463C27.7242 30.0029 27.8742 30.0306 28.0253 30.028C28.1763 30.0253 28.3253 29.9922 28.4633 29.9308C28.6013 29.8693 28.7255 29.7806 28.8285 29.6701L33.7035 24.7951L34.5 24.0001L33.705 23.2051L28.83 18.3301C28.6179 18.1251 28.3338 18.0115 28.0388 18.014C27.7438 18.0164 27.4616 18.1346 27.2529 18.343C27.0443 18.5515 26.9258 18.8336 26.9231 19.1286C26.9204 19.4236 27.0337 19.7078 27.2385 19.9201L30.1935 22.8751H14.625C14.3266 22.8751 14.0405 22.9936 13.8295 23.2046C13.6185 23.4156 13.5 23.7017 13.5 24.0001C13.5 24.2985 13.6185 24.5846 13.8295 24.7956C14.0405 25.0066 14.3266 25.1251 14.625 25.1251H30.1935L27.2385 28.0801Z" fill="#E15225"/>
</svg>
