<svg width="48" height="48" viewBox="0 0 48 48" fill="none" xmlns="http://www.w3.org/2000/svg">
<rect x="1" y="1" width="46" height="46" rx="23" stroke="white" stroke-width="2"/>
<path fill-rule="evenodd" clip-rule="evenodd" d="M20.7615 28.08C20.872 28.183 20.9607 28.3072 21.0222 28.4452C21.0837 28.5832 21.1167 28.7321 21.1194 28.8832C21.1221 29.0342 21.0943 29.1843 21.0377 29.3244C20.9811 29.4644 20.8969 29.5917 20.7901 29.6985C20.6832 29.8054 20.556 29.8896 20.4159 29.9462C20.2758 30.0027 20.1258 30.0305 19.9747 30.0279C19.8237 30.0252 19.6747 29.9921 19.5367 29.9306C19.3987 29.8692 19.2745 29.7805 19.1715 29.67L14.2965 24.795L13.5 24L14.295 23.205L19.17 18.33C19.3821 18.1249 19.6662 18.0114 19.9612 18.0138C20.2562 18.0163 20.5384 18.1344 20.7471 18.3429C20.9557 18.5514 21.0742 18.8335 21.0769 19.1285C21.0796 19.4235 20.9663 19.7077 20.7615 19.92L17.8065 22.875H33.375C33.6734 22.875 33.9595 22.9935 34.1705 23.2045C34.3815 23.4155 34.5 23.7016 34.5 24C34.5 24.2983 34.3815 24.5845 34.1705 24.7955C33.9595 25.0064 33.6734 25.125 33.375 25.125H17.8065L20.7615 28.08Z" fill="white"/>
</svg>
