<svg width="48" height="48" viewBox="0 0 48 48" fill="none" xmlns="http://www.w3.org/2000/svg">
<rect x="1" y="1" width="46" height="46" rx="23" stroke="#E15225" stroke-width="2"/>
<path fill-rule="evenodd" clip-rule="evenodd" d="M20.7615 28.0801C20.872 28.1831 20.9607 28.3073 21.0222 28.4453C21.0837 28.5833 21.1167 28.7323 21.1194 28.8833C21.1221 29.0344 21.0943 29.1844 21.0377 29.3245C20.9811 29.4646 20.8969 29.5918 20.7901 29.6986C20.6832 29.8055 20.556 29.8897 20.4159 29.9463C20.2758 30.0029 20.1258 30.0306 19.9747 30.028C19.8237 30.0253 19.6747 29.9922 19.5367 29.9308C19.3987 29.8693 19.2745 29.7806 19.1715 29.6701L14.2965 24.7951L13.5 24.0001L14.295 23.2051L19.17 18.3301C19.3821 18.1251 19.6662 18.0115 19.9612 18.014C20.2562 18.0164 20.5384 18.1346 20.7471 18.343C20.9557 18.5515 21.0742 18.8336 21.0769 19.1286C21.0796 19.4236 20.9663 19.7078 20.7615 19.9201L17.8065 22.8751H33.375C33.6734 22.8751 33.9595 22.9936 34.1705 23.2046C34.3815 23.4156 34.5 23.7017 34.5 24.0001C34.5 24.2985 34.3815 24.5846 34.1705 24.7956C33.9595 25.0066 33.6734 25.1251 33.375 25.1251H17.8065L20.7615 28.0801Z" fill="#E15225"/>
</svg>
